<svg width="219" height="218" viewBox="0 0 219 218" fill="none" xmlns="http://www.w3.org/2000/svg">
<g filter="url(#filter0_d_470_712)">
<g filter="url(#filter1_i_470_712)">
<rect x="59.5" y="59" width="100" height="100" rx="8" fill="#F7F8FF"/>
</g>
<path d="M138.789 85.0595C138.789 83.9234 138.338 82.8339 137.535 82.0305C136.732 81.2271 135.642 80.7755 134.506 80.7751H99.9674V100.187H144.145L138.789 91.1655V85.0595Z" fill="url(#paint0_linear_470_712)"/>
<path d="M138.791 89.4758H149.5V94.8312C149.5 96.2516 148.936 97.6138 147.931 98.6181C146.927 99.6224 145.565 100.187 144.145 100.187C142.724 100.186 141.363 99.6219 140.359 98.6176C139.355 97.6133 138.791 96.2513 138.791 94.8312V89.4758Z" fill="#4C50B1"/>
<path d="M86.0462 137H122.41C123.614 137.001 124.772 136.538 125.644 135.707C126.516 134.876 127.034 133.741 127.09 132.538L129.151 89.3424L129.691 85.0257C129.924 83.8908 130.519 82.8624 131.388 82.0957C132.257 81.329 133.351 80.8655 134.506 80.7751H93.4285C92.3368 80.7767 91.2868 81.1944 90.4923 81.9432C89.6979 82.6919 89.2188 83.7154 89.1526 84.8051L86.0462 137Z" fill="#757AE9"/>
<path d="M80.9859 137H122.048C120.606 136.884 119.241 136.304 118.157 135.346C117.073 134.387 116.33 133.104 116.038 131.687L115.363 126.291H74.5341L75.7233 132.633C75.954 133.86 76.6061 134.968 77.567 135.765C78.5279 136.563 79.7372 136.999 80.9859 137Z" fill="url(#paint1_linear_470_712)"/>
<path d="M97.5567 118.527H116.298C116.667 118.517 117.02 118.377 117.296 118.132C117.572 117.887 117.753 117.553 117.806 117.188C117.83 117.018 117.818 116.846 117.769 116.682C117.721 116.518 117.638 116.366 117.525 116.237C117.413 116.112 117.274 116.012 117.12 115.945C116.965 115.878 116.798 115.845 116.63 115.848H97.8941C97.5255 115.858 97.1722 115.997 96.8965 116.242C96.6208 116.487 96.4405 116.821 96.3873 117.186C96.3628 117.356 96.3753 117.529 96.4238 117.693C96.4723 117.857 96.5558 118.009 96.6684 118.138C96.7799 118.263 96.917 118.362 97.0702 118.429C97.2235 118.496 97.3894 118.53 97.5567 118.527ZM98.4001 105.877H117.143C117.511 105.866 117.865 105.726 118.14 105.481C118.416 105.236 118.596 104.901 118.649 104.536C118.674 104.366 118.661 104.194 118.613 104.03C118.564 103.866 118.481 103.714 118.368 103.585C118.256 103.461 118.118 103.361 117.964 103.294C117.81 103.227 117.644 103.194 117.476 103.198H98.7375C98.3688 103.207 98.0155 103.347 97.7396 103.592C97.4637 103.837 97.283 104.171 97.2292 104.536C97.205 104.705 97.2176 104.878 97.2661 105.042C97.3146 105.206 97.3979 105.358 97.5104 105.487C97.6221 105.612 97.7594 105.712 97.9129 105.779C98.0664 105.846 98.2326 105.879 98.4001 105.877ZM99.318 94.8988H118.059C118.428 94.889 118.782 94.7493 119.058 94.5042C119.334 94.2591 119.514 93.9244 119.567 93.5592C119.593 93.3906 119.582 93.2186 119.535 93.0546C119.488 92.8907 119.407 92.7387 119.296 92.609C119.183 92.4831 119.044 92.3833 118.889 92.3163C118.734 92.2493 118.566 92.2168 118.396 92.2211H99.6553C99.2867 92.231 98.9333 92.3707 98.6575 92.6154C98.3816 92.8602 98.2009 93.1944 98.1471 93.5592C98.123 93.7285 98.1356 93.901 98.1841 94.065C98.2326 94.2289 98.3159 94.3805 98.4282 94.5094C98.5406 94.633 98.6782 94.7311 98.8317 94.797C98.9851 94.863 99.151 94.8953 99.318 94.8917V94.8988Z" fill="white"/>
<path d="M91.3004 87.8032C91.5534 87.8033 91.8038 87.8552 92.0361 87.9557C92.2683 88.0561 92.4776 88.203 92.651 88.3873C92.8244 88.5717 92.9582 88.7895 93.0443 89.0275C93.1304 89.2654 93.1669 89.5185 93.1516 89.7711L91.9779 108.55C91.9492 109.022 91.7418 109.465 91.3978 109.789C91.0538 110.112 90.5992 110.293 90.1267 110.293H71.3546C71.1016 110.293 70.8512 110.241 70.6189 110.141C70.3867 110.04 70.1774 109.893 70.004 109.709C69.8306 109.525 69.6968 109.307 69.6107 109.069C69.5246 108.831 69.4881 108.578 69.5034 108.325L70.6771 89.5434C70.7064 89.0723 70.9142 88.63 71.2581 88.3067C71.6021 87.9834 72.0563 87.8034 72.5283 87.8032H91.3004Z" fill="#00D4B0"/>
<path d="M79.9331 99.7511L77.4761 97.5021L75.705 99.5895L79.2795 102.844C79.4104 102.977 79.5671 103.083 79.74 103.155C79.913 103.226 80.0986 103.262 80.2858 103.26C80.473 103.258 80.6578 103.218 80.8291 103.143C81.0004 103.067 81.1547 102.958 81.2825 102.821L86.95 96.1668L84.7164 94.1287L79.9331 99.7511Z" fill="white"/>
</g>
<defs>
<filter id="filter0_d_470_712" x="0.5" y="0" width="218" height="218" filterUnits="userSpaceOnUse" color-interpolation-filters="sRGB">
<feFlood flood-opacity="0" result="BackgroundImageFix"/>
<feColorMatrix in="SourceAlpha" type="matrix" values="0 0 0 0 0 0 0 0 0 0 0 0 0 0 0 0 0 0 127 0" result="hardAlpha"/>
<feOffset/>
<feGaussianBlur stdDeviation="29.5"/>
<feColorMatrix type="matrix" values="0 0 0 0 0.815686 0 0 0 0 0.866667 0 0 0 0 1 0 0 0 0.77 0"/>
<feBlend mode="normal" in2="BackgroundImageFix" result="effect1_dropShadow_470_712"/>
<feBlend mode="normal" in="SourceGraphic" in2="effect1_dropShadow_470_712" result="shape"/>
</filter>
<filter id="filter1_i_470_712" x="59.5" y="59" width="103" height="103" filterUnits="userSpaceOnUse" color-interpolation-filters="sRGB">
<feFlood flood-opacity="0" result="BackgroundImageFix"/>
<feBlend mode="normal" in="SourceGraphic" in2="BackgroundImageFix" result="shape"/>
<feColorMatrix in="SourceAlpha" type="matrix" values="0 0 0 0 0 0 0 0 0 0 0 0 0 0 0 0 0 0 127 0" result="hardAlpha"/>
<feOffset dx="3" dy="5"/>
<feGaussianBlur stdDeviation="1.5"/>
<feComposite in2="hardAlpha" operator="arithmetic" k2="-1" k3="1"/>
<feColorMatrix type="matrix" values="0 0 0 0 1 0 0 0 0 1 0 0 0 0 1 0 0 0 1 0"/>
<feBlend mode="normal" in2="shape" result="effect1_innerShadow_470_712"/>
</filter>
<linearGradient id="paint0_linear_470_712" x1="122.056" y1="100.187" x2="122.056" y2="80.7751" gradientUnits="userSpaceOnUse">
<stop stop-color="#B3B7F4"/>
<stop offset="1" stop-color="#A7BFFB"/>
</linearGradient>
<linearGradient id="paint1_linear_470_712" x1="98.2912" y1="126.291" x2="98.2912" y2="137" gradientUnits="userSpaceOnUse">
<stop stop-color="#F2F6FF"/>
<stop offset="1" stop-color="#DAE4FF"/>
</linearGradient>
</defs>
</svg>
